<?xml version="1.0" encoding="UTF-8" standalone="no"?>
<svg
   xmlns:dc="http://purl.org/dc/elements/1.1/"
   xmlns:cc="http://creativecommons.org/ns#"
   xmlns:rdf="http://www.w3.org/1999/02/22-rdf-syntax-ns#"
   xmlns:svg="http://www.w3.org/2000/svg"
   xmlns="http://www.w3.org/2000/svg"
   xmlns:sodipodi="http://sodipodi.sourceforge.net/DTD/sodipodi-0.dtd"
   xmlns:inkscape="http://www.inkscape.org/namespaces/inkscape"
   height="100"
   viewBox="0 0 12.5 12.5"
   width="100"
   version="1.1"
   id="svg920"
   sodipodi:docname="adhesive-tape.svg"
   inkscape:version="0.92.4 (f8dce91, 2019-08-02)">
  <metadata
     id="metadata926">
    <rdf:RDF>
      <cc:Work
         rdf:about="">
        <dc:format>image/svg+xml</dc:format>
        <dc:type
           rdf:resource="http://purl.org/dc/dcmitype/StillImage" />
        <dc:title></dc:title>
      </cc:Work>
    </rdf:RDF>
  </metadata>
  <defs
     id="defs924" />
  <sodipodi:namedview
     pagecolor="#ffffff"
     bordercolor="#666666"
     borderopacity="1"
     objecttolerance="10"
     gridtolerance="10"
     guidetolerance="10"
     inkscape:pageopacity="0"
     inkscape:pageshadow="2"
     inkscape:window-width="1856"
     inkscape:window-height="1009"
     id="namedview922"
     showgrid="false"
     inkscape:zoom="3.4335615"
     inkscape:cx="14.906158"
     inkscape:cy="23.376774"
     inkscape:window-x="64"
     inkscape:window-y="34"
     inkscape:window-maximized="1"
     inkscape:current-layer="svg920" />
  <g
     id="g20"
     transform="matrix(0.20413863,0,0,0.20413863,-0.28243619,10.230703)">
    <path
       inkscape:connector-curvature="0"
       style="fill:#5584ee;fill-opacity:1"
       id="path906"
       d="m 55,-30.5 c -2.784,0 -3,7.654 -3,10 0,2.346 0.216,10 3,10 2.784,0 3,-7.654 3,-10 0,-2.346 -0.216,-10 -3,-10 z m 0,17.616 a 22.492,22.492 0 0 1 -1,-7.616 22.492,22.492 0 0 1 1,-7.616 22.492,22.492 0 0 1 1,7.616 22.492,22.492 0 0 1 -1,7.616 z" />
    <path
       inkscape:connector-curvature="0"
       style="fill:#5584ee;fill-opacity:1"
       id="path908"
       d="M 55,-37.5 H 45 c -2.614,0 -4.532,2.9 -5.693,6.928 C 37.1,-33.784 29.881,-35.5 23,-35.5 c -8.241,0 -17,2.453 -17,7 H 2 v 12 h 4 v 8 c 0,4.547 8.759,7 17,7 8.2,0 16.9,-2.428 16.991,-6.926 C 41.167,-5.48 42.845,-3.5 45,-3.5 h 10 c 4.547,0 7,-8.759 7,-17 0,-8.241 -2.453,-17 -7,-17 z m -49,19 H 4 v -8 h 2 z m 17,-15 c 8.585,0 15,2.64 15,5 0,2.36 -6.415,5 -15,5 -8.585,0 -15,-2.64 -15,-5 0,-2.36 6.415,-5 15,-5 z m 15,25 c 0,2.36 -6.415,5 -15,5 -8.585,0 -15,-2.64 -15,-5 v -6.587 c 3.053,2.344 9.149,3.587 15,3.587 5.851,0 11.947,-1.243 15,-3.587 z m 0,-12 v 2 c 0,2.36 -6.415,5 -15,5 -8.585,0 -15,-2.64 -15,-5 v -6.587 c 3.053,2.344 9.149,3.587 15,3.587 6.035,0 12.333,-1.321 15.28,-3.811 A 41.8,41.8 0 0 0 38,-20.5 Z m 7,15 c -2.36,0 -5,-6.415 -5,-15 0,-8.585 2.64,-15 5,-15 h 6.587 c -2.344,3.053 -3.587,9.149 -3.587,15 0,5.851 1.243,11.947 3.587,15 z m 10,0 c -2.36,0 -5,-6.415 -5,-15 0,-8.585 2.64,-15 5,-15 2.36,0 5,6.415 5,15 0,8.585 -2.64,15 -5,15 z" />
    <path
       inkscape:connector-curvature="0"
       style="fill:#5584ee;fill-opacity:1"
       id="path910"
       d="m 23,-25.5 c 2.346,0 10,-0.217 10,-3 0,-2.783 -7.654,-3 -10,-3 -2.346,0 -10,0.217 -10,3 0,2.783 7.654,3 10,3 z m 0,-4 a 22.487,22.487 0 0 1 7.616,1 22.487,22.487 0 0 1 -7.616,1 22.487,22.487 0 0 1 -7.616,-1 22.487,22.487 0 0 1 7.616,-1 z" />
    <path
       inkscape:connector-curvature="0"
       style="fill:#5584ee;fill-opacity:1"
       id="path912"
       d="m 46,-32.5 h 2 v 2 h -2 z" />
    <path
       inkscape:connector-curvature="0"
       style="fill:#5584ee;fill-opacity:1"
       id="path914"
       d="m 43,-29.5 h 2 v 2 h -2 z" />
    <path
       inkscape:connector-curvature="0"
       style="fill:#5584ee;fill-opacity:1"
       id="path916"
       d="m 10,-10.5 h 2 v 2 h -2 z" />
    <path
       inkscape:connector-curvature="0"
       style="fill:#5584ee;fill-opacity:1"
       id="path918"
       d="m 16,-17.5 h 2 v 2 h -2 z" />
  </g>
</svg>
