<?xml version="1.0" encoding="UTF-8" standalone="no"?>
<!-- Generator: Adobe Illustrator 16.0.0, SVG Export Plug-In . SVG Version: 6.00 Build 0)  -->

<svg
   xmlns:dc="http://purl.org/dc/elements/1.1/"
   xmlns:cc="http://creativecommons.org/ns#"
   xmlns:rdf="http://www.w3.org/1999/02/22-rdf-syntax-ns#"
   xmlns:svg="http://www.w3.org/2000/svg"
   xmlns="http://www.w3.org/2000/svg"
   xmlns:sodipodi="http://sodipodi.sourceforge.net/DTD/sodipodi-0.dtd"
   xmlns:inkscape="http://www.inkscape.org/namespaces/inkscape"
   version="1.1"
   id="Capa_1"
   x="0px"
   y="0px"
   width="100"
   height="100"
   viewBox="0 0 100 100"
   xml:space="preserve"
   sodipodi:docname="book.svg"
   inkscape:version="0.92.4 (f8dce91, 2019-08-02)"
   inkscape:export-filename="/home/joel/Downloads/mosh/img/core-img/book.png"
   inkscape:export-xdpi="15"
   inkscape:export-ydpi="15"><metadata
   id="metadata953"><rdf:RDF><cc:Work
       rdf:about=""><dc:format>image/svg+xml</dc:format><dc:type
         rdf:resource="http://purl.org/dc/dcmitype/StillImage" /><dc:title></dc:title></cc:Work></rdf:RDF></metadata><defs
   id="defs951">
	

		
	</defs><sodipodi:namedview
   pagecolor="#ffffff"
   bordercolor="#666666"
   borderopacity="1"
   objecttolerance="10"
   gridtolerance="10"
   guidetolerance="10"
   inkscape:pageopacity="0"
   inkscape:pageshadow="2"
   inkscape:window-width="1856"
   inkscape:window-height="1009"
   id="namedview949"
   showgrid="false"
   inkscape:zoom="3.422856"
   inkscape:cx="64.358357"
   inkscape:cy="31.082632"
   inkscape:window-x="64"
   inkscape:window-y="34"
   inkscape:window-maximized="1"
   inkscape:current-layer="Capa_1" />
<path
   d="m 91.412164,35.075558 c -0.390661,-2.93676 -0.445726,-7.99495 2.282008,-9.693403 0.04865,-0.03118 0.08501,-0.07615 0.127735,-0.114755 2.230097,-0.713292 3.773449,-1.714321 2.561967,-3.061324 L 63.48664,12.293842 10.218582,19.699765 c 0,0 -6.0998668,0.871859 -5.5549554,10.348753 0.2958121,5.157942 1.9135475,7.691062 3.3282984,8.937733 l -4.3711271,1.317307 c -1.2132269,1.347003 0.3298369,2.348324 2.5602299,3.060455 0.042372,0.03978 0.078145,0.08443 0.1277184,0.115626 2.7260142,1.699889 2.6735334,6.757502 2.2814351,9.694841 -9.7931652,2.780791 -6.277761,3.686965 -6.277761,3.686965 l 2.148237,0.519823 c -1.5110572,1.365461 -3.0117324,3.954809 -2.7306299,8.865664 0.5452012,9.475157 5.5555278,10.129054 5.5555278,10.129054 L 42.143892,87.706158 94.758339,74.962091 c 0,0 3.516572,-0.90761 -6.279191,-3.68869 -0.393838,-2.932733 -0.448622,-7.989761 2.283731,-9.693985 0.05018,-0.03026 0.08682,-0.07612 0.127434,-0.114169 2.230393,-0.713282 3.772303,-1.71345 2.560508,-3.060447 l -2.2869,-0.690523 c 1.525187,-0.919722 3.816133,-3.323393 4.175083,-9.567131 0.24765,-4.294725 -0.872739,-6.809969 -2.169575,-8.290763 l 4.520197,-1.093859 c 2.81e-4,0.0018 3.516864,-0.905881 -6.277468,-3.686961 z m -44.008842,-0.121355 8.847781,-1.818405 29.900493,-6.144552 4.454732,-0.916256 c -1.423406,2.605207 -1.363719,6.170495 -1.12817,8.462022 0.05165,0.51838 0.111004,0.991798 0.168666,1.35161 l -4.875962,1.212368 -37.739459,9.388369 z m -38.0064368,9.221146 4.4541628,0.916265 28.715221,5.902938 2.508622,0.513785 v 0 0 l 7.522984,1.546219 0.371065,11.535456 -38.788056,-9.650175 -3.823917,-0.950281 c 0.05626,-0.360393 0.115626,-0.833227 0.169529,-1.353059 0.23411,-2.289805 0.294954,-5.855962 -1.1296108,-8.461166 z M 7.6664258,29.592407 c -0.053961,-2.520732 0.395277,-4.343751 1.3031791,-5.270386 0.5777856,-0.591626 1.2596401,-0.714732 1.7272911,-0.714732 0.247079,0 0.424972,0.03428 0.437084,0.03428 l 22.951824,7.482606 11.450971,3.733379 -0.375672,11.615885 -32.124539,-9.006346 -1.695285,-0.474852 c -0.06225,-0.01759 -0.146761,-0.02966 -0.211916,-0.03258 -0.132341,-0.0099 -3.3084057,-0.30186 -3.4629372,-7.367284 z M 42.226933,82.673632 8.4079658,73.192132 c -0.062553,-0.0182 -0.1461743,-0.03026 -0.2113381,-0.03343 -0.1346352,-0.009 -3.3121519,-0.301001 -3.4658242,-7.3647 -0.054765,-2.523899 0.3967257,-4.345177 1.3028994,-5.272684 0.5792242,-0.591625 1.2613684,-0.71473 1.7281499,-0.71473 0.2476607,0 0.4249724,0.03318 0.4379519,0.03318 0,0 9.781e-4,0 0,0 L 42.600294,71.057471 Z M 86.542249,70.735407 c 0.05334,0.52012 0.112729,0.992664 0.170395,1.353059 l -42.616297,10.601597 0.372505,-11.535448 9.111019,-1.873177 1.345556,0.325507 5.043191,-1.639067 23.247055,-4.777075 4.456475,-0.916841 c -1.424842,2.60492 -1.365741,6.171653 -1.129905,8.461445 z m 2.347455,-15.67708 c -0.07747,0.0018 -0.155118,0.01189 -0.228049,0.03517 l -3.214129,0.899831 -30.60397,8.581382 -0.374231,-11.615888 10.040825,-3.27496 24.31267,-7.92893 c 0.0034,-9.4e-4 1.278964,-0.284851 2.215407,0.667445 0.906457,0.926646 1.356223,2.749655 1.303174,5.270387 -0.158567,7.063115 -3.336086,7.356621 -3.451697,7.365567 z"
   id="path912"
   inkscape:connector-curvature="0"
   style="fill:#5584ee;fill-opacity:1;stroke-width:0.28831416" />
<g
   id="g918"
   transform="translate(0,-235.07901)">
</g>
<g
   id="g920"
   transform="translate(0,-235.07901)">
</g>
<g
   id="g922"
   transform="translate(0,-235.07901)">
</g>
<g
   id="g924"
   transform="translate(0,-235.07901)">
</g>
<g
   id="g926"
   transform="translate(0,-235.07901)">
</g>
<g
   id="g928"
   transform="translate(0,-235.07901)">
</g>
<g
   id="g930"
   transform="translate(0,-235.07901)">
</g>
<g
   id="g932"
   transform="translate(0,-235.07901)">
</g>
<g
   id="g934"
   transform="translate(0,-235.07901)">
</g>
<g
   id="g936"
   transform="translate(0,-235.07901)">
</g>
<g
   id="g938"
   transform="translate(0,-235.07901)">
</g>
<g
   id="g940"
   transform="translate(0,-235.07901)">
</g>
<g
   id="g942"
   transform="translate(0,-235.07901)">
</g>
<g
   id="g944"
   transform="translate(0,-235.07901)">
</g>
<g
   id="g946"
   transform="translate(0,-235.07901)">
</g>
</svg>