<?xml version="1.0" encoding="UTF-8" standalone="no"?>
<!-- Generator: Adobe Illustrator 16.0.0, SVG Export Plug-In . SVG Version: 6.00 Build 0)  -->

<svg
   xmlns:dc="http://purl.org/dc/elements/1.1/"
   xmlns:cc="http://creativecommons.org/ns#"
   xmlns:rdf="http://www.w3.org/1999/02/22-rdf-syntax-ns#"
   xmlns:svg="http://www.w3.org/2000/svg"
   xmlns="http://www.w3.org/2000/svg"
   xmlns:sodipodi="http://sodipodi.sourceforge.net/DTD/sodipodi-0.dtd"
   xmlns:inkscape="http://www.inkscape.org/namespaces/inkscape"
   version="1.1"
   id="Capa_1"
   x="0px"
   y="0px"
   width="100"
   height="100"
   viewBox="0 0 99.999998 99.999998"
   xml:space="preserve"
   sodipodi:docname="brochure.svg"
   inkscape:version="0.92.4 (f8dce91, 2019-08-02)"><metadata
   id="metadata308"><rdf:RDF><cc:Work
       rdf:about=""><dc:format>image/svg+xml</dc:format><dc:type
         rdf:resource="http://purl.org/dc/dcmitype/StillImage" /><dc:title></dc:title></cc:Work></rdf:RDF></metadata><defs
   id="defs306" /><sodipodi:namedview
   pagecolor="#ffffff"
   bordercolor="#666666"
   borderopacity="1"
   objecttolerance="10"
   gridtolerance="10"
   guidetolerance="10"
   inkscape:pageopacity="0"
   inkscape:pageshadow="2"
   inkscape:window-width="1856"
   inkscape:window-height="1009"
   id="namedview304"
   showgrid="false"
   inkscape:zoom="4.0011796"
   inkscape:cx="187.10266"
   inkscape:cy="57.738809"
   inkscape:window-x="64"
   inkscape:window-y="34"
   inkscape:window-maximized="1"
   inkscape:current-layer="Capa_1" />
<g
   id="g271"
   transform="matrix(0.27324345,0,0,0.27324345,1.5837838,0.43890346)"
   style="fill:#487bed;fill-opacity:1">
	<g
   id="g269"
   style="fill:#487bed;fill-opacity:1">
		<path
   d="m 48.028,35.264 v 2.263 286.368 9.762 h 232.2 5.4 V 42.056 h -37.8 V 0 Z m 16.2,22.992 h 205.2 v 259.2 H 64.228 Z M 232.303,40.706 H 104.728 c 0,0 124.2,-22.615 127.575,-22.615 z"
   id="path261"
   inkscape:connector-curvature="0"
   style="fill:#487bed;fill-opacity:1" />
		<path
   d="m 144.584,73.986 c -1.268,-2.992 -4.206,-4.931 -7.457,-4.931 h -54 c -4.472,0 -8.1,3.623 -8.1,8.101 v 56.024 c 0,3.304 2.004,6.275 5.065,7.513 0.989,0.393 2.009,0.588 3.035,0.588 2.154,0 4.276,-0.865 5.832,-2.479 l 54,-56.025 c 2.253,-2.339 2.896,-5.8 1.625,-8.791 z M 91.228,113.105 V 85.256 h 26.845 z"
   id="path263"
   inkscape:connector-curvature="0"
   style="fill:#487bed;fill-opacity:1" />
		<path
   d="m 253.629,237.073 c -3.027,-1.255 -6.508,-0.569 -8.828,1.751 l -54,54 c -2.32,2.32 -3.017,5.801 -1.762,8.833 1.266,3.026 4.219,4.999 7.488,4.999 h 54 c 4.473,0 8.101,-3.623 8.101,-8.101 v -54 c 0,-3.274 -1.973,-6.227 -4.999,-7.482 z m -11.201,53.383 h -26.346 l 26.346,-26.346 z"
   id="path265"
   inkscape:connector-curvature="0"
   style="fill:#487bed;fill-opacity:1" />
		<path
   d="m 240.402,166.86 c 0,-4.475 -3.628,-8.1 -8.1,-8.1 h -125.55 c -4.472,0 -8.1,3.625 -8.1,8.1 0,4.474 3.628,8.103 8.1,8.103 h 125.55 c 4.472,0 8.1,-3.629 8.1,-8.103 z"
   id="path267"
   inkscape:connector-curvature="0"
   style="fill:#487bed;fill-opacity:1" />
	</g>
</g>
<g
   id="g273"
   transform="translate(0,-233.65601)">
</g>
<g
   id="g275"
   transform="translate(0,-233.65601)">
</g>
<g
   id="g277"
   transform="translate(0,-233.65601)">
</g>
<g
   id="g279"
   transform="translate(0,-233.65601)">
</g>
<g
   id="g281"
   transform="translate(0,-233.65601)">
</g>
<g
   id="g283"
   transform="translate(0,-233.65601)">
</g>
<g
   id="g285"
   transform="translate(0,-233.65601)">
</g>
<g
   id="g287"
   transform="translate(0,-233.65601)">
</g>
<g
   id="g289"
   transform="translate(0,-233.65601)">
</g>
<g
   id="g291"
   transform="translate(0,-233.65601)">
</g>
<g
   id="g293"
   transform="translate(0,-233.65601)">
</g>
<g
   id="g295"
   transform="translate(0,-233.65601)">
</g>
<g
   id="g297"
   transform="translate(0,-233.65601)">
</g>
<g
   id="g299"
   transform="translate(0,-233.65601)">
</g>
<g
   id="g301"
   transform="translate(0,-233.65601)">
</g>
</svg>