<?xml version="1.0" encoding="UTF-8" standalone="no"?>
<!-- Generator: Adobe Illustrator 19.0.0, SVG Export Plug-In . SVG Version: 6.00 Build 0)  -->

<svg
   xmlns:dc="http://purl.org/dc/elements/1.1/"
   xmlns:cc="http://creativecommons.org/ns#"
   xmlns:rdf="http://www.w3.org/1999/02/22-rdf-syntax-ns#"
   xmlns:svg="http://www.w3.org/2000/svg"
   xmlns="http://www.w3.org/2000/svg"
   xmlns:sodipodi="http://sodipodi.sourceforge.net/DTD/sodipodi-0.dtd"
   xmlns:inkscape="http://www.inkscape.org/namespaces/inkscape"
   version="1.1"
   id="Capa_1"
   x="0px"
   y="0px"
   viewBox="0 0 100 100"
   xml:space="preserve"
   sodipodi:docname="calendar.svg"
   width="100"
   height="100"
   inkscape:version="0.92.4 (f8dce91, 2019-08-02)"><metadata
   id="metadata831"><rdf:RDF><cc:Work
       rdf:about=""><dc:format>image/svg+xml</dc:format><dc:type
         rdf:resource="http://purl.org/dc/dcmitype/StillImage" /><dc:title></dc:title></cc:Work></rdf:RDF></metadata><defs
   id="defs829" /><sodipodi:namedview
   pagecolor="#ffffff"
   bordercolor="#666666"
   borderopacity="1"
   objecttolerance="10"
   gridtolerance="10"
   guidetolerance="10"
   inkscape:pageopacity="0"
   inkscape:pageshadow="2"
   inkscape:window-width="1856"
   inkscape:window-height="1009"
   id="namedview827"
   showgrid="false"
   inkscape:zoom="5.2149125"
   inkscape:cx="97.174459"
   inkscape:cy="35.928101"
   inkscape:window-x="64"
   inkscape:window-y="34"
   inkscape:window-maximized="1"
   inkscape:current-layer="Capa_1" />














<g
   id="g991"
   style="fill:#497bed;fill-opacity:1"
   transform="matrix(0.19247721,0,0,0.19247721,0.7258347,0.7258347)"><g
     id="g710"
     style="fill:#497bed;fill-opacity:1">
	<g
   id="g708"
   style="fill:#497bed;fill-opacity:1">
		<path
   id="path706"
   d="M 452,40 H 428 V 0 H 388 V 40 H 124 V 0 H 84 V 40 H 60 C 26.916,40 0,66.916 0,100 v 352 c 0,33.084 26.916,60 60,60 h 392 c 33.084,0 60,-26.916 60,-60 V 100 C 512,66.916 485.084,40 452,40 Z m 20,412 c 0,11.028 -8.972,20 -20,20 H 60 C 48.972,472 40,463.028 40,452 V 188 h 432 z m 0,-304 H 40 V 100 C 40,88.972 48.972,80 60,80 h 24 v 40 h 40 V 80 h 264 v 40 h 40 V 80 h 24 c 11.028,0 20,8.972 20,20 z"
   style="fill:#497bed;fill-opacity:1"
   inkscape:connector-curvature="0" />
	</g>
</g><g
     id="g716"
     style="fill:#497bed;fill-opacity:1">
	<g
   id="g714"
   style="fill:#497bed;fill-opacity:1">
		<rect
   id="rect712"
   height="40"
   width="40"
   y="230"
   x="76"
   style="fill:#497bed;fill-opacity:1" />
	</g>
</g><g
     id="g722"
     style="fill:#497bed;fill-opacity:1">
	<g
   id="g720"
   style="fill:#497bed;fill-opacity:1">
		<rect
   id="rect718"
   height="40"
   width="40"
   y="230"
   x="156"
   style="fill:#497bed;fill-opacity:1" />
	</g>
</g><g
     id="g728"
     style="fill:#497bed;fill-opacity:1">
	<g
   id="g726"
   style="fill:#497bed;fill-opacity:1">
		<rect
   id="rect724"
   height="40"
   width="40"
   y="230"
   x="236"
   style="fill:#497bed;fill-opacity:1" />
	</g>
</g><g
     id="g734"
     style="fill:#497bed;fill-opacity:1">
	<g
   id="g732"
   style="fill:#497bed;fill-opacity:1">
		<rect
   id="rect730"
   height="40"
   width="40"
   y="230"
   x="316"
   style="fill:#497bed;fill-opacity:1" />
	</g>
</g><g
     id="g740"
     style="fill:#497bed;fill-opacity:1">
	<g
   id="g738"
   style="fill:#497bed;fill-opacity:1">
		<rect
   id="rect736"
   height="40"
   width="40"
   y="230"
   x="396"
   style="fill:#497bed;fill-opacity:1" />
	</g>
</g><g
     id="g746"
     style="fill:#497bed;fill-opacity:1">
	<g
   id="g744"
   style="fill:#497bed;fill-opacity:1">
		<rect
   id="rect742"
   height="40"
   width="40"
   y="310"
   x="76"
   style="fill:#497bed;fill-opacity:1" />
	</g>
</g><g
     id="g752"
     style="fill:#497bed;fill-opacity:1">
	<g
   id="g750"
   style="fill:#497bed;fill-opacity:1">
		<rect
   id="rect748"
   height="40"
   width="40"
   y="310"
   x="156"
   style="fill:#497bed;fill-opacity:1" />
	</g>
</g><g
     id="g758"
     style="fill:#497bed;fill-opacity:1">
	<g
   id="g756"
   style="fill:#497bed;fill-opacity:1">
		<rect
   id="rect754"
   height="40"
   width="40"
   y="310"
   x="236"
   style="fill:#497bed;fill-opacity:1" />
	</g>
</g><g
     id="g764"
     style="fill:#497bed;fill-opacity:1">
	<g
   id="g762"
   style="fill:#497bed;fill-opacity:1">
		<rect
   id="rect760"
   height="40"
   width="40"
   y="310"
   x="316"
   style="fill:#497bed;fill-opacity:1" />
	</g>
</g><g
     id="g770"
     style="fill:#497bed;fill-opacity:1">
	<g
   id="g768"
   style="fill:#497bed;fill-opacity:1">
		<rect
   id="rect766"
   height="40"
   width="40"
   y="390"
   x="76"
   style="fill:#497bed;fill-opacity:1" />
	</g>
</g><g
     id="g776"
     style="fill:#497bed;fill-opacity:1">
	<g
   id="g774"
   style="fill:#497bed;fill-opacity:1">
		<rect
   id="rect772"
   height="40"
   width="40"
   y="390"
   x="156"
   style="fill:#497bed;fill-opacity:1" />
	</g>
</g><g
     id="g782"
     style="fill:#497bed;fill-opacity:1">
	<g
   id="g780"
   style="fill:#497bed;fill-opacity:1">
		<rect
   id="rect778"
   height="40"
   width="40"
   y="390"
   x="236"
   style="fill:#497bed;fill-opacity:1" />
	</g>
</g><g
     id="g788"
     style="fill:#497bed;fill-opacity:1">
	<g
   id="g786"
   style="fill:#497bed;fill-opacity:1">
		<rect
   id="rect784"
   height="40"
   width="40"
   y="390"
   x="316"
   style="fill:#497bed;fill-opacity:1" />
	</g>
</g><g
     id="g794"
     style="fill:#497bed;fill-opacity:1">
	<g
   id="g792"
   style="fill:#497bed;fill-opacity:1">
		<rect
   id="rect790"
   height="40"
   width="40"
   y="310"
   x="396"
   style="fill:#497bed;fill-opacity:1" />
	</g>
</g></g>
<g
   id="g796"
   transform="translate(0,-412)">
</g>
<g
   id="g798"
   transform="translate(0,-412)">
</g>
<g
   id="g800"
   transform="translate(0,-412)">
</g>
<g
   id="g802"
   transform="translate(0,-412)">
</g>
<g
   id="g804"
   transform="translate(0,-412)">
</g>
<g
   id="g806"
   transform="translate(0,-412)">
</g>
<g
   id="g808"
   transform="translate(0,-412)">
</g>
<g
   id="g810"
   transform="translate(0,-412)">
</g>
<g
   id="g812"
   transform="translate(0,-412)">
</g>
<g
   id="g814"
   transform="translate(0,-412)">
</g>
<g
   id="g816"
   transform="translate(0,-412)">
</g>
<g
   id="g818"
   transform="translate(0,-412)">
</g>
<g
   id="g820"
   transform="translate(0,-412)">
</g>
<g
   id="g822"
   transform="translate(0,-412)">
</g>
<g
   id="g824"
   transform="translate(0,-412)">
</g>
</svg>