<?xml version="1.0" encoding="UTF-8" standalone="no"?>
<!-- Generator: Adobe Illustrator 17.1.0, SVG Export Plug-In . SVG Version: 6.00 Build 0)  -->

<svg
   xmlns:dc="http://purl.org/dc/elements/1.1/"
   xmlns:cc="http://creativecommons.org/ns#"
   xmlns:rdf="http://www.w3.org/1999/02/22-rdf-syntax-ns#"
   xmlns:svg="http://www.w3.org/2000/svg"
   xmlns="http://www.w3.org/2000/svg"
   xmlns:sodipodi="http://sodipodi.sourceforge.net/DTD/sodipodi-0.dtd"
   xmlns:inkscape="http://www.inkscape.org/namespaces/inkscape"
   version="1.1"
   id="Capa_1"
   x="0px"
   y="0px"
   viewBox="0 0 100 100"
   xml:space="preserve"
   sodipodi:docname="catalog.svg"
   width="100"
   height="100"
   inkscape:version="0.92.4 (f8dce91, 2019-08-02)"><metadata
   id="metadata55"><rdf:RDF><cc:Work
       rdf:about=""><dc:format>image/svg+xml</dc:format><dc:type
         rdf:resource="http://purl.org/dc/dcmitype/StillImage" /><dc:title></dc:title></cc:Work></rdf:RDF></metadata><defs
   id="defs53" /><sodipodi:namedview
   pagecolor="#ffffff"
   bordercolor="#666666"
   borderopacity="1"
   objecttolerance="10"
   gridtolerance="10"
   guidetolerance="10"
   inkscape:pageopacity="0"
   inkscape:pageshadow="2"
   inkscape:window-width="1856"
   inkscape:window-height="1009"
   id="namedview51"
   showgrid="false"
   inkscape:zoom="3.0204018"
   inkscape:cx="116.25562"
   inkscape:cy="-8.2021618"
   inkscape:window-x="64"
   inkscape:window-y="34"
   inkscape:window-maximized="1"
   inkscape:current-layer="Capa_1" />
<g
   id="g18"
   transform="matrix(0.22409132,0,0,0.22409132,0.4757068,0.47584683)"
   style="fill:#4f7fed;fill-opacity:1">
	<path
   d="m 364.401,40.381 -140.662,-40 C 223.683,0.365 223.626,0.36 223.57,0.345 223.244,0.258 222.912,0.189 222.574,0.135 222.465,0.118 222.356,0.099 222.246,0.085 221.845,0.035 221.439,0.002 221.025,0 221.017,0.001 221.008,0 221,0 c -0.425,0 -0.841,0.035 -1.252,0.087 -0.099,0.013 -0.198,0.03 -0.297,0.045 -0.357,0.056 -0.708,0.129 -1.052,0.222 -0.043,0.012 -0.088,0.015 -0.131,0.028 l -0.223,0.063 c -0.008,0.003 -0.017,0.005 -0.026,0.007 L 77.599,40.381 C 73.3,41.604 70.335,45.531 70.335,50 v 382 c 0,3.136 1.471,6.09 3.973,7.979 2.502,1.891 5.745,2.497 8.762,1.639 l 137.934,-39.222 137.927,39.222 c 0.9,0.256 1.82,0.381 2.735,0.381 2.151,0 4.272,-0.694 6.027,-2.02 2.502,-1.89 3.973,-4.844 3.973,-7.98 V 50 c 0,-4.469 -2.966,-8.396 -7.265,-9.619 z M 90.335,57.553 211,23.241 V 384.448 L 90.335,418.76 Z M 351.666,418.76 231,384.446 V 23.239 l 120.666,34.314 z"
   id="path2"
   inkscape:connector-curvature="0"
   style="fill:#4f7fed;fill-opacity:1" />
	<path
   d="m 258.267,80.994 60.662,17.25 c 0.915,0.26 1.835,0.384 2.74,0.384 4.356,0 8.363,-2.869 9.614,-7.267 1.511,-5.313 -1.571,-10.843 -6.883,-12.354 l -60.662,-17.25 c -5.313,-1.51 -10.843,1.572 -12.354,6.883 -1.511,5.312 1.571,10.843 6.883,12.354 z"
   id="path4"
   inkscape:connector-curvature="0"
   style="fill:#4f7fed;fill-opacity:1" />
	<path
   d="m 258.267,130.994 60.662,17.25 c 0.915,0.26 1.835,0.384 2.74,0.384 4.356,0 8.363,-2.869 9.614,-7.267 1.511,-5.313 -1.571,-10.843 -6.883,-12.354 l -60.662,-17.25 c -5.313,-1.513 -10.843,1.572 -12.354,6.883 -1.511,5.312 1.571,10.843 6.883,12.354 z"
   id="path6"
   inkscape:connector-curvature="0"
   style="fill:#4f7fed;fill-opacity:1" />
	<path
   d="m 258.267,180.994 60.662,17.25 c 0.915,0.26 1.835,0.384 2.74,0.384 4.356,0 8.363,-2.869 9.614,-7.267 1.511,-5.313 -1.571,-10.843 -6.883,-12.354 l -60.662,-17.25 c -5.313,-1.512 -10.843,1.572 -12.354,6.883 -1.511,5.312 1.571,10.843 6.883,12.354 z"
   id="path8"
   inkscape:connector-curvature="0"
   style="fill:#4f7fed;fill-opacity:1" />
	<path
   d="m 258.267,362.994 60.662,17.25 c 0.9,0.256 1.82,0.381 2.735,0.381 2.151,0 4.272,-0.694 6.027,-2.021 2.502,-1.89 3.973,-4.844 3.973,-7.979 v -132 c 0,-4.469 -2.966,-8.396 -7.265,-9.619 l -60.662,-17.25 c -3.016,-0.857 -6.26,-0.251 -8.762,1.639 -2.502,1.89 -3.973,4.844 -3.973,7.979 v 132 c 0,4.47 2.966,8.397 7.265,9.62 z m 12.735,-128.379 40.662,11.563 v 111.207 l -40.662,-11.563 z"
   id="path10"
   inkscape:connector-curvature="0"
   style="fill:#4f7fed;fill-opacity:1" />
	<path
   d="m 178.267,343.755 -60.669,17.251 c -5.312,1.511 -8.394,7.042 -6.883,12.354 1.25,4.398 5.257,7.267 9.614,7.267 0.905,0 1.826,-0.124 2.74,-0.384 l 60.669,-17.251 c 5.312,-1.511 8.394,-7.042 6.883,-12.354 -1.511,-5.311 -7.043,-8.393 -12.354,-6.883 z"
   id="path12"
   inkscape:connector-curvature="0"
   style="fill:#4f7fed;fill-opacity:1" />
	<path
   d="m 120.328,98.628 c 0.905,0 1.826,-0.124 2.74,-0.384 l 60.669,-17.251 c 5.312,-1.511 8.394,-7.042 6.883,-12.354 -1.51,-5.312 -7.043,-8.394 -12.354,-6.883 l -60.669,17.251 c -5.312,1.511 -8.394,7.042 -6.883,12.354 1.251,4.398 5.257,7.267 9.614,7.267 z"
   id="path14"
   inkscape:connector-curvature="0"
   style="fill:#4f7fed;fill-opacity:1" />
	<path
   d="m 178.267,111.755 -60.669,17.251 c -5.312,1.511 -8.394,7.042 -6.883,12.354 1.25,4.398 5.257,7.267 9.614,7.267 0.905,0 1.826,-0.124 2.74,-0.384 l 60.669,-17.251 c 5.312,-1.511 8.394,-7.042 6.883,-12.354 -1.511,-5.311 -7.043,-8.393 -12.354,-6.883 z"
   id="path16"
   inkscape:connector-curvature="0"
   style="fill:#4f7fed;fill-opacity:1" />
</g>
<g
   id="g20"
   transform="translate(0,-342)">
</g>
<g
   id="g22"
   transform="translate(0,-342)">
</g>
<g
   id="g24"
   transform="translate(0,-342)">
</g>
<g
   id="g26"
   transform="translate(0,-342)">
</g>
<g
   id="g28"
   transform="translate(0,-342)">
</g>
<g
   id="g30"
   transform="translate(0,-342)">
</g>
<g
   id="g32"
   transform="translate(0,-342)">
</g>
<g
   id="g34"
   transform="translate(0,-342)">
</g>
<g
   id="g36"
   transform="translate(0,-342)">
</g>
<g
   id="g38"
   transform="translate(0,-342)">
</g>
<g
   id="g40"
   transform="translate(0,-342)">
</g>
<g
   id="g42"
   transform="translate(0,-342)">
</g>
<g
   id="g44"
   transform="translate(0,-342)">
</g>
<g
   id="g46"
   transform="translate(0,-342)">
</g>
<g
   id="g48"
   transform="translate(0,-342)">
</g>
</svg>