<?xml version="1.0" encoding="UTF-8" standalone="no"?>
<svg
   xmlns:dc="http://purl.org/dc/elements/1.1/"
   xmlns:cc="http://creativecommons.org/ns#"
   xmlns:rdf="http://www.w3.org/1999/02/22-rdf-syntax-ns#"
   xmlns:svg="http://www.w3.org/2000/svg"
   xmlns="http://www.w3.org/2000/svg"
   xmlns:sodipodi="http://sodipodi.sourceforge.net/DTD/sodipodi-0.dtd"
   xmlns:inkscape="http://www.inkscape.org/namespaces/inkscape"
   height="70pt"
   viewBox="0 0 70 70"
   width="70pt"
   version="1.1"
   id="svg16"
   sodipodi:docname="brochure.svg"
   inkscape:version="0.92.4 (f8dce91, 2019-08-02)">
  <metadata
     id="metadata22">
    <rdf:RDF>
      <cc:Work
         rdf:about="">
        <dc:format>image/svg+xml</dc:format>
        <dc:type
           rdf:resource="http://purl.org/dc/dcmitype/StillImage" />
        <dc:title></dc:title>
      </cc:Work>
    </rdf:RDF>
  </metadata>
  <defs
     id="defs20" />
  <sodipodi:namedview
     pagecolor="#ffffff"
     bordercolor="#666666"
     borderopacity="1"
     objecttolerance="10"
     gridtolerance="10"
     guidetolerance="10"
     inkscape:pageopacity="0"
     inkscape:pageshadow="2"
     inkscape:window-width="1856"
     inkscape:window-height="1009"
     id="namedview18"
     showgrid="false"
     inkscape:zoom="1.9555922"
     inkscape:cx="-18.158333"
     inkscape:cy="5.0608613"
     inkscape:window-x="64"
     inkscape:window-y="34"
     inkscape:window-maximized="1"
     inkscape:current-layer="svg16" />
  <g
     id="g919"
     transform="matrix(0.13220012,0,0,0.13220012,1.1567682,59.589222)">
    <path
       inkscape:connector-curvature="0"
       style="fill:#4a7ced;fill-opacity:1"
       id="path2"
       d="m 506.99609,-383.07031 -47.08593,-16.62891 c -3.90235,-1.37891 -8.1875,0.66797 -9.56641,4.57422 -1.37891,3.90625 0.66797,8.1914 4.57422,9.57031 L 497,-370.69531 V -6.5234422 L 346.33203,-58.554692 V -423.89844 l 78.41016,27.6875 c 3.90234,1.37891 8.1875,-0.66797 9.5664,-4.57422 1.37891,-3.90625 -0.66796,-8.1914 -4.57421,-9.57031 l -88.40625,-31.21484 c -0.69922,-0.25 -1.66016,-0.42969 -2.4961,-0.42969 -1.35156,0 -2.82422,0.41015 -4.01562,1.16406 L 171.98047,-337.65234 9.523438,-383.22266 c -2.257813,-0.63281 -4.683594,-0.17187 -6.554688,1.2461 C 1.097656,-380.5586 0,-378.34766 0,-376 V 3.9999978 c 0,3.17969 2.003906,6.0117202 5.003906,7.0703102 l 30.863282,10.89844 c 0.824218,0.29297 1.667968,0.42969 2.496093,0.42969 3.089844,0 5.984375,-1.92188 7.070313,-5.00391 C 46.8125,13.488278 44.765625,9.2031178 40.859375,7.8242178 L 15,-1.3046922 V -366.10547 l 150.66797,42.26172 V 51.898438 L 71.039062,18.484368 c -3.902343,-1.38281 -8.1875,0.66797 -9.566406,4.57422 -1.378906,3.90625 0.667969,8.1875 4.574219,9.57032 l 104.625005,36.9414 c 0.6875,0.2461 1.66796,0.42969 2.49609,0.42969 h 0.004 c 1.48437,0 3.01953,-0.47266 4.29296,-1.35156 l 162.52735,-113.51953 162.05859,55.96093 c 2.29297,0.79297 4.82813,0.42578 6.80078,-0.98047 C 510.82812,8.7031178 512,6.4257778 512,3.9999978 V -376 c 0,-3.17969 -2.00391,-6.01172 -5.00391,-7.07031 z m -326.32812,57.66797 150.66406,-95.46876 V -57.121092 L 180.66797,48.113278 Z m 0,0" />
    <g
       id="g906">
      <path
         d="m 143.16406,27.589838 c 1.53516,0 3.05078,-0.46875 4.33203,-1.375 1.98828,-1.40625 3.17188,-3.6914 3.17188,-6.125 V -306.78906 c 0,-3.36328 -2.23828,-6.3125 -5.47656,-7.22266 L 39.523438,-343.64844 c -2.257813,-0.63281 -4.683594,-0.17187 -6.554688,1.24609 C 31.097656,-340.98437 30,-338.77344 30,-336.42578 v 319.203118 c 0,3.1836 2.003906,6.01563 5.003906,7.07422 l 105.664064,37.3125 c 0.8125,0.28516 1.65625,0.42578 2.49609,0.42578 z m -7.49609,-328.691398 v 92.32031 L 45,-234.21484 v -92.32032 z m 0,310.5898378 L 45,-22.527342 V -218.63672 l 90.66797,25.4336 z m 0,0"
         id="path4"
         style="fill:#4a7ced;fill-opacity:1"
         inkscape:connector-curvature="0" />
      <path
         d="m 364.50391,-398.21485 c -1.98829,1.40625 -3.17188,3.69141 -3.17188,6.125 v 317.503908 c 0,3.19922 2.02734,6.04297 5.05469,7.08985 l 105.66406,36.48828 c 0.80078,0.27343 1.625,0.41015 2.44922,0.41015 1.53906,0 3.06641,-0.47656 4.35156,-1.39062 1.97656,-1.41016 3.14844,-3.6836 3.14844,-6.10938 V -354.77735 c 0,-3.17968 -2.00391,-6.01171 -5.00391,-7.07421 l -105.66797,-37.3125 c -2.29296,-0.8086 -4.83984,-0.45313 -6.82421,0.94921 z M 467,-48.621092 376.33203,-79.929692 V -203.10547 L 467,-171.08984 Z m 0,-300.851568 v 162.47657 l -90.66797,-32.01953 v -162.47266 z m 0,0"
         id="path6"
         style="fill:#4a7ced;fill-opacity:1"
         inkscape:connector-curvature="0" />
      <path
         d="m 391.60547,-159.99219 56.41797,19.92578 c 0.82812,0.28907 1.66797,0.42969 2.5,0.42969 3.08984,0 5.98437,-1.92578 7.07031,-5.0039 1.37891,-3.90625 -0.66797,-8.19141 -4.57422,-9.57032 l -56.42187,-19.92578 c -3.90625,-1.3789 -8.1875,0.66797 -9.57032,4.57422 -1.3789,3.90625 0.67188,8.19141 4.57813,9.57031 z m 0,0"
         id="path8"
         style="fill:#4a7ced;fill-opacity:1"
         inkscape:connector-curvature="0" />
      <path
         d="m 391.60547,-129.36719 56.41797,19.92188 c 0.82812,0.29297 1.66797,0.42968 2.5,0.42968 3.08984,0 5.98437,-1.92187 7.07031,-5.0039 1.37891,-3.90625 -0.66797,-8.1875 -4.57422,-9.56641 l -56.42187,-19.92578 c -3.90625,-1.3789 -8.1875,0.66797 -9.57032,4.57422 -1.3789,3.90625 0.67188,8.19141 4.57813,9.57031 z m 0,0"
         id="path10"
         style="fill:#4a7ced;fill-opacity:1"
         inkscape:connector-curvature="0" />
      <path
         d="m 391.60547,-98.742192 56.41797,19.92188 c 0.82812,0.29297 1.66797,0.42968 2.5,0.42968 3.08984,0 5.98437,-1.92578 7.07031,-5.0039 1.37891,-3.90625 -0.66797,-8.19141 -4.57422,-9.57031 l -56.42187,-19.921878 c -3.90625,-1.3789 -8.1875,0.66797 -9.57032,4.57422 -1.3789,3.90625 0.67188,8.19141 4.57813,9.570308 z m 0,0"
         id="path12"
         style="fill:#4a7ced;fill-opacity:1"
         inkscape:connector-curvature="0" />
      <path
         d="m 312.44922,-386.54688 c -2.39844,-1.3164 -5.32031,-1.23047 -7.62891,0.23438 l -105.66797,66.95313 c -2.17187,1.375 -3.48437,3.76562 -3.48437,6.33593 V -282 c 0,4.14062 3.35547,7.5 7.5,7.5 4.14062,0 7.5,-3.35938 7.5,-7.5 v -26.89844 l 90.66406,-57.44531 V -72.757812 L 210.66797,-9.4335922 V -250 c 0,-4.14062 -3.35938,-7.5 -7.5,-7.5 -4.14453,0 -7.5,3.35938 -7.5,7.5 V 4.9531178 c 0,2.79688 1.55469,5.3593802 4.03125,6.6523502 1.08984,0.5664 2.28125,0.84765 3.46484,0.84765 1.51172,0 3.01563,-0.45312 4.29688,-1.35156 l 105.66797,-73.80078 c 2.00781,-1.40234 3.20312,-3.69922 3.20312,-6.14844 V -379.97656 c 0,-2.73438 -1.48828,-5.25391 -3.88281,-6.57032 z m 0,0"
         id="path14"
         style="fill:#4a7ced;fill-opacity:1"
         inkscape:connector-curvature="0" />
      <path
         style="fill:none;stroke:#4a7ced;stroke-width:14.69999981;stroke-linecap:butt;stroke-linejoin:miter;stroke-miterlimit:4;stroke-dasharray:none;stroke-opacity:1"
         d="m 35.379308,13.910838 41.611436,14.57359"
         id="path86"
         inkscape:connector-curvature="0"
         sodipodi:nodetypes="cc" />
      <path
         sodipodi:nodetypes="cc"
         inkscape:connector-curvature="0"
         id="path893"
         d="m 203.13382,-289.89339 -0.0312,44.08967"
         style="fill:none;stroke:#4a7ced;stroke-width:14.69999981;stroke-linecap:butt;stroke-linejoin:miter;stroke-miterlimit:4;stroke-dasharray:none;stroke-opacity:1" />
      <path
         style="fill:none;stroke:#4a7ced;stroke-width:14.69999981;stroke-linecap:butt;stroke-linejoin:miter;stroke-miterlimit:4;stroke-dasharray:none;stroke-opacity:1"
         d="m 423.42193,-404.72271 41.59592,15.07273"
         id="path895"
         inkscape:connector-curvature="0"
         sodipodi:nodetypes="cc" />
    </g>
  </g>
</svg>
