<?xml version="1.0" encoding="UTF-8" standalone="no"?>
<svg
   xmlns:dc="http://purl.org/dc/elements/1.1/"
   xmlns:cc="http://creativecommons.org/ns#"
   xmlns:rdf="http://www.w3.org/1999/02/22-rdf-syntax-ns#"
   xmlns:svg="http://www.w3.org/2000/svg"
   xmlns="http://www.w3.org/2000/svg"
   xmlns:sodipodi="http://sodipodi.sourceforge.net/DTD/sodipodi-0.dtd"
   xmlns:inkscape="http://www.inkscape.org/namespaces/inkscape"
   height="100"
   viewBox="-43 0 75.000003 75.000003"
   width="100"
   version="1.1"
   id="svg435"
   sodipodi:docname="poster.svg"
   inkscape:version="0.92.4 (f8dce91, 2019-08-02)">
  <metadata
     id="metadata441">
    <rdf:RDF>
      <cc:Work
         rdf:about="">
        <dc:format>image/svg+xml</dc:format>
        <dc:type
           rdf:resource="http://purl.org/dc/dcmitype/StillImage" />
        <dc:title></dc:title>
      </cc:Work>
    </rdf:RDF>
  </metadata>
  <defs
     id="defs439" />
  <sodipodi:namedview
     pagecolor="#ffffff"
     bordercolor="#666666"
     borderopacity="1"
     objecttolerance="10"
     gridtolerance="10"
     guidetolerance="10"
     inkscape:pageopacity="0"
     inkscape:pageshadow="2"
     inkscape:window-width="1856"
     inkscape:window-height="1009"
     id="namedview437"
     showgrid="false"
     units="px"
     inkscape:zoom="1.9555922"
     inkscape:cx="171.8381"
     inkscape:cy="74.347526"
     inkscape:window-x="64"
     inkscape:window-y="34"
     inkscape:window-maximized="1"
     inkscape:current-layer="svg435" />
  <g
     id="g511"
     transform="matrix(0.1430484,0,0,0.1430484,-35.89806,0.87960785)">
    <path
       style="fill:#4a7ced;fill-opacity:1"
       id="path423"
       d="m 294.93359,337.94922 c 0,-5.54297 -4.49609,-10.03906 -10.03906,-10.03906 H 83.09375 c -5.542969,0 -10.039062,4.49609 -10.039062,10.03906 0,5.54297 4.496093,10.03906 10.039062,10.03906 h 201.80078 c 5.54297,0 10.03906,-4.49609 10.03906,-10.03906 z m 0,0"
       inkscape:connector-curvature="0" />
    <path
       style="fill:#4a7ced;fill-opacity:1"
       id="path425"
       d="M 414.96484,423.73437 H 371.64453 V 262.0625 c 0,-5.54297 -4.49609,-10.03906 -10.03906,-10.03906 -5.54297,0 -10.03906,4.49609 -10.03906,10.03906 V 423.73437 H 146.375 c -5.54297,0 -10.03906,4.4961 -10.03906,10.03907 0,32.05468 -26.07813,58.13672 -58.125002,58.14843 -32.054688,-0.0117 -58.132813,-26.09375 -58.132813,-58.14843 v -326.5 h 11.339844 v 13.91797 c 0,5.54297 4.496093,10.03906 10.039062,10.03906 H 97.65625 c 5.54297,0 10.03906,-4.49609 10.03906,-10.03906 v -13.91797 h 156.25391 v 13.91797 c 0,5.54297 4.49609,10.03906 10.04297,10.03906 h 56.19531 c 5.54297,0 10.03906,-4.49609 10.03906,-10.03906 v -13.91797 h 11.33985 V 181.75 c 0,5.54297 4.49609,10.03906 10.03906,10.03906 5.54297,0 10.03906,-4.49609 10.03906,-10.03906 V 97.234375 c 0,-5.542969 -4.49609,-10.039063 -10.03906,-10.039063 H 340.22656 V 73.277344 c 0,-5.542969 -4.49609,-10.039063 -10.03906,-10.039063 H 312.12891 V 10.039062 C 312.12891,4.496094 307.63281,0 302.08984,0 296.54687,0 292.05078,4.496094 292.05078,10.039062 v 53.199219 h -18.05859 c -5.54297,0 -10.03906,4.496094 -10.03906,10.039063 V 87.195312 H 107.69531 V 73.277344 c 0,-5.542969 -4.49609,-10.039063 -10.03906,-10.039063 H 79.597656 V 10.039062 C 79.597656,4.496094 75.101562,0 69.558594,0 64.011719,0 59.515625,4.496094 59.515625,10.039062 V 63.238281 H 41.457031 c -5.542969,0 -10.039062,4.496094 -10.039062,10.039063 V 87.195312 H 10.039062 C 4.496094,87.195312 0,91.691406 0,97.234375 V 433.77344 c 0,43.08984 35.035156,78.17578 78.125,78.22265 0.01953,0 0.03906,0.004 0.0625,0.004 h 268.58594 c 43.13672,0 78.23047,-35.09375 78.23047,-78.22656 0,-5.54297 -4.4961,-10.03907 -10.03907,-10.03907 z M 284.02734,83.316406 h 36.1211 v 27.835934 h -36.1211 z m -232.531246,0 H 87.617188 V 111.15234 H 51.496094 Z M 346.77344,491.92187 H 130.5 c 13.57422,-12.21484 22.86719,-29.10937 25.3125,-48.10937 h 248.24219 c -4.76953,27.29687 -28.64063,48.10937 -57.28125,48.10937 z m 0,0"
       inkscape:connector-curvature="0" />
    <path
       style="fill:#4a7ced;fill-opacity:1"
       id="path427"
       d="m 83.09375,302.70703 h 201.80078 c 3.6211,0 6.96485,-1.94922 8.74219,-5.10547 1.78125,-3.15625 1.72265,-7.02344 -0.14844,-10.125 l -85.5,-141.52734 c -1.82031,-3.00781 -5.07812,-4.84766 -8.59375,-4.84766 -3.51562,0 -6.77734,1.83985 -8.59375,4.84766 l -34.07422,56.40234 -6.80859,-11.26562 c -1.81641,-3.00782 -5.07813,-4.84766 -8.59375,-4.84766 -3.51563,0 -6.77344,1.83984 -8.59375,4.84766 L 74.5,287.47656 c -1.875,3.10156 -1.929688,6.96875 -0.152344,10.125 1.78125,3.15625 5.125,5.10547 8.746094,5.10547 z m 116.30078,-132.14844 67.70313,112.07422 h -61.875 l -36.76953,-60.86328 z m -58.06641,45.13282 40.4375,66.9414 h -80.8789 z m 0,0"
       inkscape:connector-curvature="0" />
    <path
       style="fill:#4a7ced;fill-opacity:1"
       id="path429"
       d="m 116.12109,364.02734 c -5.54687,0 -10.03906,4.4961 -10.03906,10.03907 0,5.54297 4.49219,10.03906 10.03906,10.03906 h 95.51563 c 5.54297,0 10.03906,-4.4961 10.03906,-10.03906 0,-5.54297 -4.49609,-10.03907 -10.03906,-10.03907 z m 0,0"
       inkscape:connector-curvature="0" />
    <path
       style="fill:#4a7ced;fill-opacity:1"
       id="path431"
       d="m 260.21875,368.49609 c -2.38672,-3.57031 -6.96875,-5.29687 -11.10938,-4.07812 -3.98046,1.17187 -6.88671,4.68359 -7.24609,8.82812 -0.35937,4.16797 2.05469,8.25 5.86328,9.95703 3.78125,1.69532 8.29297,0.89454 11.23438,-2.03906 3.35156,-3.33984 3.88281,-8.74219 1.25781,-12.66797 z m 0,0"
       inkscape:connector-curvature="0" />
    <path
       style="fill:#4a7ced;fill-opacity:0.89117647"
       id="path433"
       d="m 370.91797,218.06641 c -1.60547,-3.88672 -5.60938,-6.41016 -9.8086,-6.1836 -4.17578,0.22656 -7.84375,3.10938 -9.0625,7.10938 -1.20312,3.94531 0.21094,8.36718 3.49219,10.875 3.375,2.58593 8.14453,2.74609 11.6875,0.38672 3.92969,-2.61719 5.4961,-7.82422 3.69141,-12.1875 z m 0,0"
       inkscape:connector-curvature="0" />
  </g>
</svg>
